<svg width="1980" height="3437" viewBox="0 0 1980 3437" fill="none" xmlns="http://www.w3.org/2000/svg">
<g clip-path="url(#clip0_83_34)">
<rect width="1980" height="3437" fill="#182847"/>
<rect x="-2" width="395" height="2236" fill="#182847"/>
<path d="M2511.78 2410.46L2818.06 2213.16C2797.12 2226.65 3069.05 2085.07 2750.97 2060.43C1840.96 1989.91 1261.5 1675 601.499 1861.5L-9.00099 2036.5L-92.0487 2164.64C415.086 2282.33 958.559 2269.73 1373.2 2212.62C1681.79 2170.11 2166.79 2327.18 2511.78 2410.46Z" fill="#1D94D8"/>
<path d="M2235.73 3870.3L2542 3673C2521.06 3686.49 2792.99 3544.91 2474.92 3520.27C1564.9 3449.75 985.444 3134.84 325.444 3321.34L-285.056 3496.34L-368.104 3624.48C139.031 3742.17 682.504 3729.57 1097.14 3672.46C1405.73 3629.95 1890.73 3787.02 2235.73 3870.3Z" fill="#1D94D8"/>
<path d="M2321.23 2735.65L2476.78 2266.22C2224.28 2167.19 1840.26 2046.35 1541.09 2048.07C1228.62 2049.86 703.044 2073.08 298.024 2028.45L-420.859 2315.17C23.2563 2413.75 661.482 2633.71 1033.73 2573.23C1310.77 2528.22 2019.3 2665.63 2321.23 2735.65Z" fill="#1D94D8" fill-opacity="0.21"/>
<path d="M-1.24597 1165.32L-1.24597 1570.07C-1.24597 1542.41 699.283 1557.8 976.635 1457.86C1770.15 1171.96 2286.56 1314.91 2208.47 1193.48L2322.46 408.745C1785.52 458.636 1377.74 705.763 1124.01 960.606C935.182 1150.27 367.898 1135.85 -1.24597 1165.32Z" fill="#1D94D8"/>
<path d="M1.74906 978.264L-0.87024 1417.52C315.228 1449.12 760.029 1455.62 990.753 1326.78C1231.74 1192.21 1612.67 937.654 1981.75 828.82V130.691C1517.08 180.689 1167.22 442.619 950.613 684.417C789.402 864.373 321.271 948.454 1.74906 978.264Z" fill="#1D94D8" fill-opacity="0.21"/>
<path d="M-216.768 3480.29L-501.542 3707.52C-482.076 3691.99 -738.306 3860.31 -419.371 3852.69C493.112 3830.91 2338.71 3961.42 2354.14 3879.59L2398.58 3461.8C1882.14 3395.93 1342.73 3463.38 935.979 3562.09C633.263 3635.55 134.875 3528.29 -216.768 3480.29Z" fill="#1D94D8"/>
<path d="M-40.9252 3132.94L-148.252 3615.69C112.961 3688.69 507.224 3770.12 804.689 3738.18C1115.39 3704.83 1635.92 3628.63 2043.38 3632.12L2729.62 3274.24C2277.82 3221.03 1620.63 3066.68 1256.4 3164.45C985.329 3237.22 266.536 3172.09 -40.9252 3132.94Z" fill="#1D94D8" fill-opacity="0.21"/>
</g>
<defs>
<clipPath id="clip0_83_34">
<rect width="1980" height="3437" fill="white"/>
</clipPath>
</defs>
</svg>
