<svg width="885" height="1141" viewBox="0 0 885 1141" fill="none" xmlns="http://www.w3.org/2000/svg">
<path d="M688.788 3.49799H210.204C155.933 3.49799 111.937 50.8977 111.937 109.368V1020.49C111.937 1078.96 155.933 1126.36 210.204 1126.36H688.788C743.06 1126.36 787.055 1078.96 787.055 1020.49V109.368C787.055 50.8977 743.06 3.49799 688.788 3.49799Z" fill="white"/>
<path d="M689.154 1128.31H209.899C154.353 1128.31 109.163 1079.79 109.163 1020.16V110.896C109.163 51.2593 154.353 2.74048 209.899 2.74048H689.154C744.699 2.74048 789.889 51.2593 789.889 110.896V1020.16C789.889 1079.79 744.699 1128.31 689.154 1128.31ZM209.899 7.74422C156.922 7.74422 113.824 54.0177 113.824 110.896V1020.16C113.824 1077.03 156.922 1123.31 209.899 1123.31H689.154C742.13 1123.31 785.229 1077.03 785.229 1020.16V110.896C785.229 54.0177 742.13 7.74422 689.154 7.74422H209.899Z" fill="#3F3D56"/>
<path d="M723.868 221.557H531.234C523.063 221.557 516.416 214.42 516.416 205.647C516.416 196.875 523.063 189.738 531.234 189.738H723.868C732.039 189.738 738.686 196.875 738.686 205.647C738.686 214.42 732.039 221.557 723.868 221.557Z" fill="#E6E6E6"/>
<path d="M543.153 346.668H355.903C351.182 346.668 347.341 342.544 347.341 337.476C347.341 332.407 351.182 328.285 355.903 328.285H543.153C547.874 328.285 551.713 332.407 551.713 337.476C551.713 342.544 547.874 346.668 543.153 346.668Z" fill="#1D94D8"/>
<path d="M545.614 1047.17H358.364C353.643 1047.17 349.802 1043.04 349.802 1037.97C349.802 1032.91 353.643 1028.78 358.364 1028.78H545.614C550.335 1028.78 554.174 1032.91 554.174 1037.97C554.174 1043.04 550.335 1047.17 545.614 1047.17Z" fill="#1D94D8"/>
<path d="M638.585 54.3267C644.722 54.3267 649.697 48.9848 649.697 42.3953C649.697 35.8057 644.722 30.4638 638.585 30.4638C632.447 30.4638 627.472 35.8057 627.472 42.3953C627.472 48.9848 632.447 54.3267 638.585 54.3267Z" fill="#E6E6E6"/>
<path d="M669.145 54.3267C675.283 54.3267 680.258 48.9848 680.258 42.3953C680.258 35.8057 675.283 30.4638 669.145 30.4638C663.008 30.4638 658.032 35.8057 658.032 42.3953C658.032 48.9848 663.008 54.3267 669.145 54.3267Z" fill="#E6E6E6"/>
<path d="M699.705 54.3267C705.843 54.3267 710.818 48.9848 710.818 42.3953C710.818 35.8057 705.843 30.4638 699.705 30.4638C693.568 30.4638 688.592 35.8057 688.592 42.3953C688.592 48.9848 693.568 54.3267 699.705 54.3267Z" fill="#E6E6E6"/>
<path d="M208.733 395.873C208.733 397.524 209.968 398.85 211.506 398.85H687.548C689.086 398.85 690.321 397.524 690.321 395.873C690.321 394.222 689.086 392.896 687.548 392.896H211.506C209.968 392.896 208.733 394.222 208.733 395.873Z" fill="#3F3D56"/>
<path d="M212.633 480.802C212.633 482.454 213.868 483.78 215.406 483.78H691.448C692.986 483.78 694.221 482.454 694.221 480.802C694.221 479.151 692.986 477.825 691.448 477.825H215.406C213.868 477.825 212.633 479.151 212.633 480.802Z" fill="#3F3D56"/>
<path d="M212.633 553.079C212.633 554.73 213.868 556.056 215.406 556.056H691.448C692.986 556.056 694.221 554.73 694.221 553.079C694.221 551.427 692.986 550.101 691.448 550.101H215.406C213.868 550.101 212.633 551.427 212.633 553.079Z" fill="#3F3D56"/>
<path d="M307.266 718.476C295.467 718.476 285.901 708.394 285.901 695.959C285.901 683.523 295.467 673.442 307.266 673.442C319.066 673.442 328.631 683.523 328.631 695.959C328.631 708.394 319.066 718.476 307.266 718.476Z" fill="#1D94D8"/>
<path d="M309.642 733.487V728.483C291.971 728.483 277.594 713.331 277.594 694.708C277.594 676.084 291.971 660.933 309.642 660.933V655.929C289.352 655.929 272.846 673.325 272.846 694.708C272.846 716.091 289.352 733.487 309.642 733.487Z" fill="#3F3D56"/>
<path d="M317.671 697.189C311.618 697.189 306.711 692.447 306.711 686.597C306.711 680.747 311.618 676.005 317.671 676.005C323.724 676.005 328.631 680.747 328.631 686.597C328.631 692.447 323.724 697.189 317.671 697.189Z" fill="white"/>
<path d="M545.889 650.215C534.089 650.215 524.524 640.134 524.524 627.698C524.524 615.262 534.089 605.181 545.889 605.181C557.688 605.181 567.254 615.262 567.254 627.698C567.254 640.134 557.688 650.215 545.889 650.215Z" fill="#1D94D8"/>
<path d="M548.263 665.226V660.222C530.592 660.222 516.216 645.07 516.216 626.447C516.216 607.823 530.592 592.672 548.263 592.672V587.668C527.974 587.668 511.468 605.064 511.468 626.447C511.468 647.83 527.974 665.226 548.263 665.226Z" fill="#3F3D56"/>
<path d="M556.294 628.928C550.24 628.928 545.333 624.186 545.333 618.336C545.333 612.487 550.24 607.745 556.294 607.745C562.347 607.745 567.254 612.487 567.254 618.336C567.254 624.186 562.347 628.928 556.294 628.928Z" fill="white"/>
<path d="M128.514 510.961L116.656 571.26L71.4461 559.398C71.4461 559.398 93.7939 509.493 89.3471 489.723L128.514 510.961Z" fill="#A0616A"/>
<path d="M58.0102 793.088C61.9293 803.087 69.9147 809.011 75.8451 806.321C81.7755 803.632 83.4046 793.347 79.4829 783.346C77.9674 779.328 75.5769 775.759 72.5117 772.939L55.4076 730.802L37.1474 739.875L55.9477 780.451C55.685 784.782 56.3923 789.115 58.0102 793.088Z" fill="#A0616A"/>
<path d="M79.2226 553.056C79.2226 553.056 54.1335 535.468 44.6966 555.11C35.2596 574.752 13.3421 675.738 13.3421 675.738L42.0788 772.395L69.8244 760.382L46.9256 656.455L79.2226 553.056Z" fill="#E6E6E6"/>
<path d="M226.909 1114.28L244.649 1110.16L238.304 1034.74L212.121 1040.81L226.909 1114.28Z" fill="#A0616A"/>
<path d="M20.4186 812.187L302.454 763.346C307.115 762.539 310.295 757.811 309.544 752.807C308.792 747.803 304.389 744.39 299.728 745.197L17.6922 794.038C13.0317 794.845 9.85262 799.571 10.6043 804.575C11.356 809.579 15.7581 812.994 20.4186 812.187Z" fill="#182847"/>
<path d="M11.9487 1126.59C11.1421 1126.59 10.4945 1125.99 10.4945 1125.24L10.4945 295.188C10.4945 294.437 11.1421 293.834 11.9487 293.834C12.7551 293.834 13.4028 294.437 13.4028 295.188L13.4028 1125.24C13.4028 1125.99 12.7551 1126.59 11.9487 1126.59Z" fill="#182847"/>
<path d="M287.602 1099.75C288.356 1100.62 289.296 1103.77 289.529 1104.94C290.248 1108.51 288.135 1112.03 284.809 1112.8L229.87 1125.54C227.601 1126.07 225.365 1124.52 224.875 1122.08L224.381 1119.63C224.381 1119.63 220.177 1112.88 223.942 1102.48C223.942 1102.48 232.33 1107.99 240.477 1094.43L242.342 1087.75L268.029 1100.03L280.651 1098.8C283.413 1098.53 285.715 1097.57 287.602 1099.75Z" fill="#2F2E41"/>
<path d="M258.63 1108.51L273.43 1097.23L239.954 1030.57L218.111 1047.22L258.63 1108.51Z" fill="#A0616A"/>
<path d="M309.099 1069.51C310.111 1069.99 312.132 1072.5 312.772 1073.47C314.741 1076.44 314.088 1080.57 311.314 1082.69L265.477 1117.61C263.584 1119.05 260.961 1118.58 259.618 1116.54L258.263 1114.5C258.263 1114.5 251.925 1110.07 251.576 1098.92C251.576 1098.92 261.307 1100.44 263.824 1084.53L263.094 1077.6L291.207 1078.03L302.361 1071.57C304.801 1070.16 306.565 1068.3 309.099 1069.51Z" fill="#2F2E41"/>
<path d="M45.4304 735.603C45.4304 735.603 17.8314 775.89 73.0295 821.183L185.726 782.52L145.477 692.389L109.828 671.4L45.4304 735.603Z" fill="#2F2E41"/>
<path d="M185.725 782.519L229.424 873.885L257.023 1064.02L222.524 1066.49L188.025 886.231L127.077 788.693L169.626 767.703" fill="#2F2E41"/>
<path d="M73.028 792.484V821.183L151.225 913.394C151.225 913.394 151.225 982.535 181.124 1014.64L215.623 1071.43L245.522 1054.15L201.824 888.7L123.626 780.05L73.028 792.484Z" fill="#2F2E41"/>
<path opacity="0.1" d="M128.596 507.965L116.738 568.264L71.5281 556.402C71.5281 556.402 93.876 506.498 89.4291 486.728L128.596 507.965Z" fill="black"/>
<path d="M85.6793 517.067L120.178 534.352C120.178 534.352 137.926 545.999 138.251 553.757C138.577 561.515 136.278 598.555 136.278 598.555C136.278 598.555 150.077 613.371 140.877 643.002L145.477 692.389L41.9808 751.653L51.1805 647.941L46.5807 551.637L85.6793 517.067Z" fill="#E6E6E6"/>
<path d="M202.691 782.536C209.86 790.188 219.349 792.42 223.885 787.52C228.42 782.621 226.284 772.447 219.111 764.793C216.285 761.693 212.808 759.365 208.972 758.003L178.214 725.99L164.529 741.807L196.304 771.687C197.596 775.799 199.785 779.519 202.691 782.536Z" fill="#A0616A"/>
<path d="M137.279 551.92C137.279 551.92 93.1715 549.983 91.3973 571.987C89.6231 593.991 119.775 692.174 119.775 692.174L180.616 769.878L202.037 747.484L144.023 660.682L137.279 551.92Z" fill="#E6E6E6"/>
<path d="M124.074 520.781C104.891 520.781 89.3397 504.085 89.3397 483.488C89.3397 462.892 104.891 446.195 124.074 446.195C143.258 446.195 158.809 462.892 158.809 483.488C158.809 504.085 143.258 520.781 124.074 520.781Z" fill="#A0616A"/>
<path d="M103.548 483.488C103.548 483.488 125.232 462.355 139.126 469.814C153.02 477.273 159.967 482.245 159.967 482.245C159.967 482.245 171.545 463.599 154.178 447.438C154.178 447.438 189.527 430.857 163.748 404.962C137.968 379.067 114.812 389.012 114.812 389.012C114.812 389.012 83.5505 403.929 105.549 433.764C105.549 433.764 73.5009 455.586 90.1039 491.292C90.1039 491.292 91.6553 468.571 96.2866 474.787C100.918 481.002 103.548 483.488 103.548 483.488Z" fill="#2F2E41"/>
</svg>
