<svg width="1023" height="1223" viewBox="0 0 1023 1223" fill="none" xmlns="http://www.w3.org/2000/svg">
<g clip-path="url(#clip0_97_34)">
<path d="M820.488 422.492H719.637V389.284C719.637 333.623 764.827 288.433 820.488 288.433L820.488 422.492Z" fill="#2F2E41"/>
<path d="M798.136 360.499L815.476 438.492L713.865 421.619L755.272 347.858L798.136 360.499Z" fill="#A0616A"/>
<path opacity="0.1" d="M798.136 360.499L815.476 438.492L713.865 421.619L755.272 347.858L798.136 360.499Z" fill="black"/>
<path d="M700.717 671.287H798.136V527.108H700.717V671.287Z" fill="#A0616A"/>
<path d="M861.457 789.164L840.025 904.117C840.025 904.117 853.663 984.001 812.748 1065.83L785.47 1149.61L744.555 1143.77C744.555 1143.77 769.883 1081.42 769.883 1054.14C769.883 1026.86 775.729 921.653 775.729 921.653L772.806 801.598L861.457 789.164Z" fill="#2F2E41"/>
<path d="M738.71 1141.82C738.71 1141.82 785.47 1124.28 789.367 1149.61L787.419 1161.3C787.419 1161.3 804.954 1213.91 779.625 1217.8C754.296 1221.7 730.916 1227.55 728.968 1215.86C727.019 1204.17 727.05 1189.57 731.906 1179.33C736.761 1169.1 738.71 1141.82 738.71 1141.82Z" fill="#2F2E41"/>
<path d="M713.966 771.333L702.583 887.712C702.583 887.712 667.266 960.651 683.81 1050.63L686.711 1138.69L727.638 1144.46C727.638 1144.46 720.648 1077.53 728.234 1051.32C735.82 1025.12 759.466 922.437 759.466 922.437L795.661 807.931L713.966 771.333Z" fill="#2F2E41"/>
<path d="M733.794 1144.21C733.794 1144.21 693.755 1114.36 682.968 1137.61L681.588 1149.38C681.588 1149.38 650.114 1195.03 673.36 1205.82C696.606 1216.61 717.439 1228.73 722.561 1218.04C727.684 1207.35 731.713 1193.33 729.896 1182.14C728.08 1170.96 733.794 1144.21 733.794 1144.21Z" fill="#2F2E41"/>
<path d="M838.077 605.043C883.901 647.805 887.301 715.464 860.483 795.983C860.483 795.983 774.755 854.434 712.407 780.396L681.233 630.372L838.077 605.043Z" fill="#2F2E41"/>
<path d="M761.118 396.567L809.827 404.361L805.93 527.108L860.484 636.216L790.343 671.287C790.343 671.287 735.789 568.023 726.047 503.727C716.305 439.431 722.15 392.67 722.15 392.67L761.118 396.567Z" fill="#42A1D8"/>
<path d="M724.097 400.465L675.388 408.258L679.285 531.005L667.595 644.011L694.872 675.184C694.872 675.184 749.426 571.921 759.168 507.625C768.91 443.329 763.065 396.568 763.065 396.568L724.097 400.465Z" fill="#42A1D8"/>
<path d="M782.548 403.387L793.264 400.464C793.264 400.464 831.257 395.593 837.102 411.18C842.947 426.767 840.999 518.34 840.999 518.34C840.999 518.34 851.052 630.732 811.929 632.013C772.806 633.294 780.599 539.772 780.599 539.772L782.548 403.387Z" fill="#42A1D8"/>
<path d="M781.134 381.904C808.983 381.904 831.559 359.328 831.559 331.479C831.559 303.629 808.983 281.053 781.134 281.053C753.284 281.053 730.708 303.629 730.708 331.479C730.708 359.328 753.284 381.904 781.134 381.904Z" fill="#A0616A"/>
<path d="M718.252 407.284L707.536 404.361C707.536 404.361 669.543 399.491 663.698 415.077C657.853 430.664 659.801 522.238 659.801 522.238C659.801 522.238 649.748 634.629 688.871 635.91C727.994 637.191 720.201 543.67 720.201 543.67L718.252 407.284Z" fill="#42A1D8"/>
<path d="M752.005 400.877C741.187 398.133 728.923 409.687 724.608 426.69C722.792 433.459 722.622 440.565 724.115 447.412L719.466 466.741L719.125 466.723L682.46 553.131C673.935 573.221 674.835 596.286 685.709 615.209C692.177 626.466 700.668 634.034 710.638 626.309C727.182 613.49 737.987 540.095 742.921 497.934L754.328 455.078C758.907 449.77 762.148 443.442 763.779 436.624C768.095 419.626 762.823 403.622 752.005 400.877Z" fill="#A0616A"/>
<path d="M684.594 372.273C687.159 364.474 692.222 357.647 694.488 349.755C697.496 339.278 703.9 362.522 704.525 351.639C705.712 330.954 737.282 277.745 755.305 267.524C773.328 257.303 783.679 260.385 802.041 269.984C802.041 269.984 810.954 270.551 822.051 276.029C833.147 281.507 843.135 290.281 847.451 301.879C850.872 311.072 850.493 321.167 851.636 330.909C854.821 358.05 870.034 383.862 866.769 410.993C865.75 419.458 862.533 428.211 855.612 433.19C848.691 438.168 837.51 437.627 832.954 430.42C831.399 427.961 830.742 425.043 829.41 422.457C828.077 419.871 825.67 417.459 822.762 417.54C818.39 417.661 816.165 423.527 817.889 427.546C819.613 431.565 823.664 433.991 827.467 436.149C818.409 440.224 807.172 438.956 799.251 432.963C791.33 426.97 787.052 416.503 788.51 406.678C790.564 392.832 810.734 395.698 813.11 381.904C814.84 371.863 820.914 355.061 819.26 345.007C817.605 334.953 809.659 347.127 818.03 341.318C808.82 345.757 789.121 315.385 779.48 311.983C769.839 308.581 761.664 301.215 757.28 291.979C747.054 306.803 738.059 302.777 734.397 320.409C730.735 338.042 734.121 378.1 749.201 387.944C743.166 392.062 738.355 397.95 735.523 404.685C733.919 408.5 732.879 412.675 730.216 415.844C725.131 421.895 715.742 422.264 708.258 419.719C698.978 416.564 691.044 409.634 686.669 400.863C682.294 392.091 681.532 381.584 684.594 372.273Z" fill="#2F2E41"/>
<path d="M663.119 1.94775H262.401C216.959 1.94775 180.121 38.7855 180.121 84.2272V1137.19C180.121 1182.63 216.959 1219.47 262.4 1219.47H663.119C708.561 1219.47 745.398 1182.63 745.398 1137.19V84.2272C745.398 38.7855 708.561 1.94775 663.119 1.94775Z" fill="white"/>
<path d="M663.119 1221.42H262.401C215.958 1221.42 178.173 1183.63 178.173 1137.19V84.2279C178.173 37.7848 215.958 0 262.401 0H663.119C709.562 0 747.347 37.7848 747.347 84.2279V1137.19C747.347 1183.63 709.562 1221.42 663.119 1221.42ZM262.401 3.89673C218.106 3.89673 182.07 39.933 182.07 84.2279V1137.19C182.07 1181.48 218.106 1217.52 262.401 1217.52H663.119C707.414 1217.52 743.451 1181.48 743.451 1137.19V84.2279C743.451 39.933 707.414 3.89673 663.119 3.89673H262.401Z" fill="#3F3D56"/>
<path d="M147.008 184.25C143.49 184.25 140.629 187.111 140.629 190.629V241.66C140.629 245.178 143.49 248.039 147.008 248.039C150.526 248.039 153.387 245.178 153.387 241.66V190.629C153.387 187.111 150.526 184.25 147.008 184.25Z" fill="#3F3D56"/>
<path d="M692.146 170.407H531.078C524.247 170.407 518.688 164.849 518.688 158.017C518.688 151.185 524.247 145.627 531.078 145.627H692.146C698.977 145.627 704.535 151.185 704.535 158.017C704.535 164.849 698.977 170.407 692.146 170.407Z" fill="#E6E6E6"/>
<path d="M541.043 267.84H384.478C380.531 267.84 377.319 264.628 377.319 260.681C377.319 256.734 380.531 253.523 384.478 253.523H541.043C544.99 253.523 548.201 256.734 548.201 260.681C548.201 264.628 544.99 267.84 541.043 267.84Z" fill="#42A1D8"/>
<path d="M153.201 303.168C223.036 303.168 279.648 247.749 279.648 179.386C279.648 111.022 223.036 55.6028 153.201 55.6028C83.3662 55.6028 26.7539 111.022 26.7539 179.386C26.7539 247.749 83.3662 303.168 153.201 303.168Z" fill="#42A1D8"/>
<path d="M196.117 116.949C179.283 147.602 162.449 178.255 145.615 208.908C134.886 189.952 124.216 170.962 113.46 152.02C109.746 145.478 99.6425 151.362 103.366 157.92C115.834 179.878 128.173 201.909 140.641 223.867C142.772 227.621 148.625 227.708 150.735 223.867C169.227 190.194 187.719 156.522 206.212 122.849C209.835 116.251 199.744 110.346 196.117 116.949Z" fill="white"/>
<path d="M319.755 28.5596H230.368C230.034 28.5596 229.764 28.8302 229.764 29.164V39.57C229.764 39.9038 230.034 40.1744 230.368 40.1744H319.755C320.088 40.1744 320.359 39.9038 320.359 39.57V29.164C320.359 28.8302 320.088 28.5596 319.755 28.5596Z" fill="#E6E6E6"/>
<path d="M620.836 40.1745C625.967 40.1745 630.128 36.0144 630.128 30.8826C630.128 25.7509 625.967 21.5908 620.836 21.5908C615.704 21.5908 611.544 25.7509 611.544 30.8826C611.544 36.0144 615.704 40.1745 620.836 40.1745Z" fill="#E6E6E6"/>
<path d="M646.39 40.1745C651.522 40.1745 655.682 36.0144 655.682 30.8826C655.682 25.7509 651.522 21.5908 646.39 21.5908C641.259 21.5908 637.099 25.7509 637.099 30.8826C637.099 36.0144 641.259 40.1745 646.39 40.1745Z" fill="#E6E6E6"/>
<path d="M671.942 40.1745C677.074 40.1745 681.234 36.0144 681.234 30.8826C681.234 25.7509 677.074 21.5908 671.942 21.5908C666.81 21.5908 662.65 25.7509 662.65 30.8826C662.65 36.0144 666.81 40.1745 671.942 40.1745Z" fill="#E6E6E6"/>
<path d="M261.425 306.158C261.425 307.444 262.458 308.476 263.743 308.476H661.775C663.061 308.476 664.094 307.444 664.094 306.158C664.094 304.872 663.061 303.839 661.775 303.839H263.743C262.458 303.839 261.425 304.872 261.425 306.158Z" fill="#3F3D56"/>
<path d="M623.608 488.39H384.742C380.795 488.39 377.583 485.178 377.583 481.231C377.583 477.284 380.795 474.074 384.742 474.074H623.608C627.555 474.074 630.765 477.284 630.765 481.231C630.765 485.178 627.555 488.39 623.608 488.39Z" fill="#42A1D8"/>
<path d="M623.608 591.654H384.742C380.795 591.654 377.583 588.442 377.583 584.495C377.583 580.548 380.795 577.337 384.742 577.337H623.608C627.555 577.337 630.765 580.548 630.765 584.495C630.765 588.442 627.555 591.654 623.608 591.654Z" fill="#42A1D8"/>
<path d="M623.608 694.917H384.742C380.795 694.917 377.583 691.706 377.583 687.758C377.583 683.811 380.795 680.601 384.742 680.601H623.608C627.555 680.601 630.765 683.811 630.765 687.758C630.765 691.706 627.555 694.917 623.608 694.917Z" fill="#42A1D8"/>
<path d="M312.292 497.883C321.977 497.883 329.827 490.032 329.827 480.348C329.827 470.663 321.977 462.812 312.292 462.812C302.608 462.812 294.757 470.663 294.757 480.348C294.757 490.032 302.608 497.883 312.292 497.883Z" fill="#42A1D8"/>
<path d="M310.345 509.573V505.676C324.848 505.676 336.648 493.877 336.648 479.374C336.648 464.87 324.848 453.071 310.345 453.071V449.174C326.997 449.174 340.544 462.721 340.544 479.374C340.544 496.026 326.997 509.573 310.345 509.573Z" fill="#3F3D56"/>
<path d="M312.292 601.147C321.977 601.147 329.827 593.296 329.827 583.611C329.827 573.927 321.977 566.076 312.292 566.076C302.608 566.076 294.757 573.927 294.757 583.611C294.757 593.296 302.608 601.147 312.292 601.147Z" fill="#42A1D8"/>
<path d="M310.345 612.837V608.94C324.848 608.94 336.648 597.142 336.648 582.637C336.648 568.134 324.848 556.334 310.345 556.334V552.438C326.997 552.438 340.544 565.985 340.544 582.637C340.544 599.29 326.997 612.837 310.345 612.837Z" fill="#3F3D56"/>
<path d="M312.292 704.41C321.977 704.41 329.827 696.559 329.827 686.875C329.827 677.19 321.977 669.339 312.292 669.339C302.608 669.339 294.757 677.19 294.757 686.875C294.757 696.559 302.608 704.41 312.292 704.41Z" fill="#42A1D8"/>
<path d="M310.345 716.101V712.204C324.848 712.204 336.648 700.405 336.648 685.901C336.648 671.397 324.848 659.598 310.345 659.598V655.701C326.997 655.701 340.544 669.248 340.544 685.901C340.544 702.553 326.997 716.101 310.345 716.101Z" fill="#3F3D56"/>
<path d="M748.797 396.98C759.615 394.235 771.879 405.789 776.194 422.793C778.011 429.562 778.18 436.667 776.688 443.514L781.336 462.843L781.678 462.825L818.343 549.233C826.868 569.324 825.967 592.389 815.093 611.312C808.625 622.569 800.134 630.136 790.164 622.411C773.621 609.593 762.815 536.198 757.882 494.037L746.474 451.181C741.895 445.872 738.654 439.544 737.023 432.726C732.708 415.729 737.98 399.724 748.797 396.98Z" fill="#A0616A"/>
<path d="M790.448 444.331L749.428 473.49L769.938 602.655L795.662 635.923L825.626 625.56L834.388 564.501L824.077 505.451L790.448 444.331Z" fill="#42A1D8"/>
</g>
<defs>
<clipPath id="clip0_97_34">
<rect width="1022.25" height="1222.76" fill="white" transform="translate(0.600586)"/>
</clipPath>
</defs>
</svg>
